<svg t="1679997542387" class="icon" viewBox="0 0 1024 1024" version="1.1" xmlns="http://www.w3.org/2000/svg" p-id="2094" width="40" height="40"><path d="M656.64 711.072c0-38.104-30.928-69.04-69.024-69.04h-330.8c-38.104 0-69.04 30.936-69.04 69.04 0 38.096 30.936 69.032 69.04 69.032h330.8c38.096 0 69.032-30.936 69.032-69.04z" fill="#FFCB01" p-id="2095"></path><path d="M847.52 365.856c-28.48-25.184-72.032-22.52-97.216 5.944l-214.16 242.064c-25.184 28.472-22.52 72.024 5.952 97.208 28.464 25.184 72.024 22.52 97.2-5.944l214.16-242.064c25.192-28.464 22.52-72.024-5.944-97.208z" fill="#FFCB01" p-id="2096"></path><path d="M667.784 682.032c0-70.648-57.36-128-128-128h-328c-70.648 0-128 57.352-128 128s57.352 128 128 128h328c70.64 0 128-57.352 128-128z m-64 0c0 35.32-28.68 64-64 64h-328c-35.32 0-64-28.68-64-64s28.68-64 64-64h328c35.32 0 64 28.68 64 64z" fill="#000001" p-id="2097"></path><path d="M896.824 243.808c-53.024-46.688-133.968-41.544-180.656 11.48L499.416 501.456c-46.688 53.024-41.552 133.968 11.472 180.656 53.024 46.688 133.968 41.544 180.656-11.472l216.76-246.176c46.688-53.024 41.544-133.968-11.48-180.656z m-42.296 48.032a64.032 64.032 0 0 1 5.744 90.328L643.512 628.344a64.032 64.032 0 0 1-90.328 5.736 64.032 64.032 0 0 1-5.736-90.32l216.752-246.176a64.032 64.032 0 0 1 90.328-5.744z" fill="#000001" p-id="2098"></path></svg>