<svg t="1679997669325" class="icon" viewBox="0 0 1024 1024" version="1.1" xmlns="http://www.w3.org/2000/svg" p-id="2603" width="40" height="40"><path d="M467.2 563.2m-432 0a432 432 0 1 0 864 0 432 432 0 1 0-864 0Z" fill="#FFDA00" p-id="2604"></path><path d="M512 0C230.4 0 0 230.4 0 512s230.4 512 512 512 512-230.4 512-512S793.6 0 512 0z m0 976C256 976 48 768 48 512S256 48 512 48 976 256 976 512 768 976 512 976z" fill="#111111" p-id="2605"></path><path d="M694.4 259.2c-73.6-19.2-150.4 19.2-182.4 41.6-54.4-38.4-118.4-51.2-182.4-41.6-51.2 12.8-92.8 44.8-118.4 92.8-112 204.8 268.8 444.8 284.8 454.4l16 9.6 16-9.6c41.6-25.6 390.4-252.8 281.6-454.4-22.4-48-64-80-115.2-92.8zM512 755.2c-108.8-73.6-329.6-256-262.4-384 16-35.2 48-57.6 83.2-67.2 9.6-3.2 19.2-3.2 28.8-3.2 44.8 3.2 86.4 16 121.6 41.6 19.2 12.8 41.6 12.8 57.6 0 25.6-16 89.6-54.4 150.4-38.4 35.2 9.6 67.2 35.2 83.2 67.2 76.8 144-192 339.2-262.4 384z" fill="#111111" p-id="2606"></path></svg>